# xmcd
#
# Track frame offsets: 
#        150
#        17170
#        42425
#        59292
#        88468
#
# Disc length: 1506 seconds
#
# Revision: 0
# Processed by: cddbd v1.5.1PL0 Copyright (c) Steve Scherf et al.
# Submitted via: ExactAudioCopy v0.95a5
#
DISCID=4005e005
DTITLE=Fallen Heroes - In Stereo!
DYEAR=1900
DGENRE=Blues
TTITLE0=Last Chance To Dance
TTITLE1=You Ain't Napoleon Solo
TTITLE2=Jackomo
TTITLE3=The Kick
TTITLE4=My Brain Feels Like Jam
EXTD=
EXTT0=
EXTT1=
EXTT2=
EXTT3=
EXTT4=
PLAYORDER=
